<svg xmlns="http://www.w3.org/2000/svg" width="19.333" height="19.333" viewBox="0 0 19.333 19.333">
  <g id="icon-arrow-right-white" transform="translate(-3.375 -3.375)">
    <path id="arrow" d="M14.679,10.244a.9.9,0,0,1,1.269,0l4.434,4.448a.9.9,0,0,1,.028,1.236L16.041,20.31a.9.9,0,1,1-1.269-1.264l3.713-3.769-3.806-3.769A.886.886,0,0,1,14.679,10.244Z" transform="translate(-3.743 -2.24)" fill="#fff"/>
    <path id="squares" d="M3.375,13.042a9.667,9.667,0,1,0,9.667-9.667A9.665,9.665,0,0,0,3.375,13.042Zm1.487,0A8.176,8.176,0,0,1,18.823,7.26,8.176,8.176,0,1,1,7.26,18.823,8.109,8.109,0,0,1,4.862,13.042Z" fill="#fff"/>
  </g>
</svg>
