<svg width="31" height="20" viewBox="0 0 31 20" fill="none" xmlns="http://www.w3.org/2000/svg">
	<path fill-rule="evenodd" clip-rule="evenodd" d="M0 3.0739V0H30.0483V3.0739C28.2485 3.07654 26.5448 3.34052 24.9964 3.79664C24.1288 4.0534 23.3104 4.36861 22.55 4.734C22.2162 4.57332 21.8709 4.42249 21.5152 4.28193C19.6085 3.52908 17.4 3.0739 15.024 3.0739C13.2141 3.0739 11.5008 3.33782 9.94456 3.79664C9.07697 4.0534 8.25857 4.36861 7.49833 4.734C7.1641 4.57332 6.81907 4.42249 6.4633 4.28193C4.56404 3.53178 2.36518 3.07748 0 3.0739ZM19.4521 13.7437C19.0491 13.1457 18.8152 12.4328 18.8148 11.6561C18.8148 11.3266 18.8758 10.9809 19.0036 10.6178C19.226 9.98441 19.6588 9.30375 20.2897 8.64879C20.8821 8.03151 21.6473 7.43982 22.5497 6.92084C23.7268 7.59652 24.6684 8.39966 25.3021 9.2149C25.6348 9.64138 25.883 10.0706 26.0453 10.4818C26.2081 10.893 26.2853 11.2858 26.2853 11.6562C26.285 12.1742 26.1807 12.6631 25.9921 13.1094C25.7093 13.7787 25.2344 14.3506 24.6377 14.7538C24.0403 15.1569 23.3271 15.3903 22.5499 15.3913C22.0316 15.3908 21.5428 15.2866 21.0963 15.0977C20.4273 14.8153 19.855 14.3403 19.4521 13.7437ZM26.2062 7.30604C26.9896 8.12221 27.5847 9.01779 27.923 9.97358C28.1153 10.519 28.222 11.0851 28.222 11.6562C28.2227 12.827 27.8642 13.9233 27.2528 14.8275C26.6415 15.7326 25.7773 16.4504 24.758 16.8819C24.079 17.1692 23.3306 17.3281 22.55 17.3281C21.3787 17.3281 20.2819 16.9703 19.3778 16.3584C18.4732 15.7469 17.7553 14.8832 17.3242 13.8641C17.0366 13.1848 16.8777 12.4364 16.8779 11.6562C16.8779 10.7992 17.1174 9.95656 17.5284 9.16956C17.94 8.38079 18.5233 7.6405 19.2416 6.96172C19.615 6.6097 20.0258 6.27442 20.4695 5.95698C20.173 5.84835 19.8686 5.74646 19.5559 5.65391C18.176 5.24721 16.6448 5.01022 15.0239 5.01022C13.0358 5.00928 11.1825 5.36752 9.57776 5.95651C10.164 6.37495 10.6927 6.82744 11.1546 7.30604C11.9375 8.12221 12.5328 9.01779 12.8711 9.97358C13.0637 10.519 13.1703 11.0851 13.1703 11.6562C13.1706 12.827 12.8126 13.9233 12.2009 14.8275C11.5894 15.7326 10.7255 16.4504 9.7064 16.8819C9.02715 17.1692 8.27876 17.3281 7.49833 17.3281C6.32685 17.3281 5.23027 16.9703 4.32612 16.3584C3.42133 15.7469 2.70352 14.8832 2.27228 13.8641C1.98471 13.1848 1.82602 12.4364 1.82625 11.6562C1.82625 10.7992 2.06552 9.95656 2.47628 9.16956C2.88815 8.38079 3.47139 7.6405 4.18991 6.96172C4.56316 6.6097 4.97392 6.27442 5.41772 5.95698C5.12093 5.84835 4.81699 5.74646 4.50412 5.65391C3.132 5.24991 1.61075 5.01286 0 5.01022V19.715H30.0482V5.01022C28.0707 5.01286 26.2269 5.37028 24.6296 5.95651C25.2159 6.37495 25.7445 6.8275 26.2062 7.30604ZM4.40024 13.7437C3.99729 13.1457 3.76342 12.4328 3.76295 11.6561C3.76295 11.3266 3.82405 10.9809 3.95199 10.6178C4.17441 9.98441 4.60718 9.30375 5.23813 8.64879C5.83029 8.03151 6.59547 7.43982 7.49785 6.92084C8.67472 7.59652 9.61655 8.39966 10.2505 9.2149C10.5829 9.64138 10.8312 10.0706 10.9937 10.4818C11.156 10.893 11.2336 11.2858 11.2336 11.6562C11.2334 12.1742 11.1291 12.6631 10.9403 13.1094C10.6575 13.7787 10.1827 14.3506 9.58585 14.7538C8.98853 15.1569 8.275 15.3903 7.49832 15.3913C6.97981 15.3908 6.49094 15.2866 6.04468 15.0977C5.37552 14.8153 4.80314 14.3403 4.40024 13.7437Z" fill="#fff" />
</svg>
